<?xml version="1.0" standalone="no"?>
<!DOCTYPE svg PUBLIC "-//W3C//DTD SVG 20010904//EN"
 "http://www.w3.org/TR/2001/REC-SVG-20010904/DTD/svg10.dtd">
<svg version="1.0" xmlns="http://www.w3.org/2000/svg"
 width="330.000000pt" height="273.000000pt" viewBox="0 0 330.000000 273.000000"
 preserveAspectRatio="xMidYMid meet">

<g transform="translate(0.000000,273.000000) scale(0.100000,-0.100000)"
fill="#000000" stroke="none">
<path d="M1500 2405 c-206 -41 -351 -122 -510 -285 -193 -196 -280 -408 -280
-680 0 -448 294 -831 730 -951 73 -21 108 -24 250 -24 141 0 177 3 250 23 340
92 609 361 701 702 20 73 24 109 24 250 0 140 -3 177 -22 247 -86 312 -315
563 -617 677 -143 54 -373 72 -526 41z m400 -30 c292 -70 521 -253 650 -519
73 -151 94 -241 94 -411 0 -162 -21 -267 -78 -390 -117 -254 -310 -431 -564
-520 -451 -158 -952 48 -1169 480 -206 408 -85 917 282 1190 121 90 290 162
435 185 75 12 271 4 350 -15z"/>
<path d="M1621 2017 c-132 -227 -211 -367 -211 -372 0 -3 32 -5 70 -5 l70 0 0
-403 0 -403 33 -32 34 -33 119 3 c86 2 119 6 120 16 1 6 2 188 3 402 l1 390
55 0 c38 0 55 4 55 13 0 11 -273 493 -289 509 -4 5 -31 -34 -60 -85z m173
-157 l106 -185 -60 -3 -60 -3 0 -404 0 -405 -105 0 -105 0 0 405 0 404 -59 3
-59 3 37 65 c149 259 186 319 192 313 4 -5 55 -91 113 -193z m134 -237 c6 -20
-84 -17 -92 3 -5 12 2 15 41 12 26 -2 48 -9 51 -15z m-98 -411 c0 -246 -3
-371 -10 -367 -6 4 -10 144 -10 388 0 250 4 377 10 367 6 -9 10 -164 10 -388z
m-17 -397 c4 -8 2 -17 -3 -20 -14 -9 -173 -3 -192 7 -40 20 -14 28 86 28 82 0
105 -3 109 -15z"/>
</g>
</svg>
